<svg xmlns="http://www.w3.org/2000/svg" xmlns:svg="http://www.w3.org/2000/svg" version="1.1" viewBox="0 0 250 250" fill="#ffffff" stroke="none" stroke-linecap="square" stroke-miterlimit="10"><clipPath id="p.0"><path d="m0 0l250 0 0 250 -250 0 0-250z" clip-rule="nonzero"/></clipPath><g clip-path="url(#p.0)"><path fill="rgba(155, 155, 155, 0)" d="m0 0l250 0 0 250 -250 0zM65.14 82.37" fill-rule="nonzero"/><path fill="#ffffff" d="m65.14 82.37l0 0c6.23-11.5 17.64-17.27 25.48-12.9l0 0c3.77 2.1 6.19 6.31 6.74 11.7 0.55 5.39-0.82 11.52-3.81 17.04l0 0c-6.23 11.5-17.64 17.27-25.48 12.9l0 0c-7.85-4.37-9.16-17.24-2.93-28.74z" fill-rule="nonzero"/><path stroke="#ffffff" stroke-width="2" stroke-linejoin="round" stroke-linecap="butt" d="m65.14 82.37l0 0c6.23-11.5 17.64-17.27 25.48-12.9l0 0c3.77 2.1 6.19 6.31 6.74 11.7 0.55 5.39-0.82 11.52-3.81 17.04l0 0c-6.23 11.5-17.64 17.27-25.48 12.9l0 0c-7.85-4.37-9.16-17.24-2.93-28.74z" fill-rule="nonzero"/><path fill="#ffffff" d="m116.12 65.76l0 0c6.23-11.5 17.64-17.27 25.48-12.9l0 0c3.77 2.1 6.19 6.31 6.74 11.7 0.55 5.39-0.82 11.52-3.81 17.04l0 0c-6.23 11.5-17.64 17.27-25.48 12.9l0 0c-7.85-4.37-9.16-17.24-2.93-28.74z" fill-rule="nonzero"/><path stroke="#ffffff" stroke-width="2" stroke-linejoin="round" stroke-linecap="butt" d="m116.12 65.76l0 0c6.23-11.5 17.64-17.27 25.48-12.9l0 0c3.77 2.1 6.19 6.31 6.74 11.7 0.55 5.39-0.82 11.52-3.81 17.04l0 0c-6.23 11.5-17.64 17.27-25.48 12.9l0 0c-7.85-4.37-9.16-17.24-2.93-28.74z" fill-rule="nonzero"/><path fill="#ffffff" d="m150.23 90.54l0 0c6.23-11.5 17.64-17.27 25.48-12.9l0 0c3.77 2.1 6.19 6.31 6.74 11.7 0.55 5.39-0.82 11.52-3.81 17.04l0 0c-6.23 11.5-17.64 17.27-25.48 12.9l0 0c-7.85-4.37-9.16-17.24-2.93-28.74z" fill-rule="nonzero"/><path stroke="#ffffff" stroke-width="2" stroke-linejoin="round" stroke-linecap="butt" d="m150.23 90.54l0 0c6.23-11.5 17.64-17.27 25.48-12.9l0 0c3.77 2.1 6.19 6.31 6.74 11.7 0.55 5.39-0.82 11.52-3.81 17.04l0 0c-6.23 11.5-17.64 17.27-25.48 12.9l0 0c-7.85-4.37-9.16-17.24-2.93-28.74z" fill-rule="nonzero"/><path fill="#ffffff" d="m161.03 145.04l0 0c6.23-11.5 17.64-17.27 25.48-12.9l0 0c3.77 2.1 6.19 6.31 6.74 11.7 0.55 5.39-0.82 11.52-3.81 17.04l0 0c-6.23 11.5-17.64 17.27-25.48 12.9l0 0c-7.85-4.37-9.16-17.24-2.93-28.74z" fill-rule="nonzero"/><path stroke="#ffffff" stroke-width="2" stroke-linejoin="round" stroke-linecap="butt" d="m161.03 145.04l0 0c6.23-11.5 17.64-17.27 25.48-12.9l0 0c3.77 2.1 6.19 6.31 6.74 11.7 0.55 5.39-0.82 11.52-3.81 17.04l0 0c-6.23 11.5-17.64 17.27-25.48 12.9l0 0c-7.85-4.37-9.16-17.24-2.93-28.74z" fill-rule="nonzero"/><path fill="#ffffff" d="m144.05 181.72c-0.24-4.05-2.14-11.98-2.86-16.66 -0.71-4.68-1.11-6.9-1.43-11.43 -0.32-4.52 0.08-10.63-0.47-15.71 -0.56-5.08-1.04-10.95-2.86-14.76 -1.83-3.81-4.84-6.27-8.09-8.1 -3.25-1.83-6.9-3.33-11.43-2.86 -4.52 0.48-10.56 3.73-15.72 5.71 -5.16 1.98-8.81 4.37-15.23 6.2 -6.43 1.83-17.62 2.46-23.33 4.76 -5.71 2.3-8.49 5-10.95 9.05 -2.46 4.05-4.37 10.15-3.81 15.23 0.56 5.08 3.58 11.83 7.15 15.24 3.57 3.41 8.33 3.57 14.28 5.24 5.95 1.67 15.56 0.72 21.43 4.77 5.87 4.05 9.6 15.08 13.81 19.52 4.21 4.44 6.59 6.43 11.43 7.15 4.84 0.71 13.18-0.24 17.62-2.86 4.44-2.62 7.3-9.44 9.04-12.86 1.75-3.41 1.67-3.57 1.43-7.62z" fill-rule="nonzero"/><path stroke="#ffffff" stroke-width="2" stroke-linejoin="round" stroke-linecap="butt" d="m144.05 181.72c-0.24-4.05-2.14-11.98-2.86-16.66 -0.71-4.68-1.11-6.9-1.43-11.43 -0.32-4.52 0.08-10.63-0.47-15.71 -0.56-5.08-1.04-10.95-2.86-14.76 -1.83-3.81-4.84-6.27-8.09-8.1 -3.25-1.83-6.9-3.33-11.43-2.86 -4.52 0.48-10.56 3.73-15.72 5.71 -5.16 1.98-8.81 4.37-15.23 6.2 -6.43 1.83-17.62 2.46-23.33 4.76 -5.71 2.3-8.49 5-10.95 9.05 -2.46 4.05-4.37 10.15-3.81 15.23 0.56 5.08 3.58 11.83 7.15 15.24 3.57 3.41 8.33 3.57 14.28 5.24 5.95 1.67 15.56 0.72 21.43 4.77 5.87 4.05 9.6 15.08 13.81 19.52 4.21 4.44 6.59 6.43 11.43 7.15 4.84 0.71 13.18-0.24 17.62-2.86 4.44-2.62 7.3-9.44 9.04-12.86 1.75-3.41 1.67-3.57 1.43-7.62z" fill-rule="nonzero"/><path fill="#ffffff" d="m137.97 145.46c-0.06-3.9 0.64-9.5-0.59-12.9 -1.23-3.39-3.69-5.81-6.79-7.46 -3.1-1.65-7.64-3.14-11.81-2.46 -4.16 0.68-9.21 4.81-13.18 6.52 -3.97 1.72-6.48 2.71-10.67 3.79 -4.18 1.07-9.91 1.2-14.43 2.66 -4.52 1.46-9.68 3.04-12.68 6.08 -3 3.04-5.12 7.46-5.34 12.14 -0.22 4.68 1.16 12.53 4.02 15.92 2.86 3.39 8.61 2.71 13.14 4.43 4.53 1.72 9.8 2.76 14.03 5.9 4.22 3.14 8.07 9.21 11.31 12.94 3.24 3.73 4.41 7.76 8.14 9.44 3.73 1.68 10.02 1.87 14.26 0.66 4.24-1.2 8.7-4.51 11.2-7.89 2.5-3.38 3.51-8.23 3.81-12.38 0.3-4.14-1.23-8-2.01-12.49 -0.78-4.49-2.26-10.28-2.66-14.43 -0.4-4.15 0.31-6.58 0.26-10.48z" fill-rule="nonzero"/><path fill="#ffffff" d="m167.15 146.83l0 0c4.79-8.85 13.6-13.27 19.67-9.87l0 0c2.92 1.63 4.8 4.88 5.23 9.03 0.43 4.16-0.61 8.88-2.92 13.12l0 0c-4.79 8.85-13.6 13.27-19.67 9.87l0 0c-6.07-3.39-7.11-13.31-2.31-22.16z" fill-rule="nonzero"/><path fill="#ffffff" d="m156.15 92.33l0 0c4.79-8.85 13.6-13.27 19.67-9.87l0 0c2.92 1.63 4.8 4.88 5.23 9.03 0.43 4.16-0.61 8.88-2.92 13.12l0 0c-4.79 8.85-13.6 13.27-19.67 9.87l0 0c-6.07-3.39-7.11-13.31-2.31-22.16z" fill-rule="nonzero"/><path fill="#ffffff" d="m122.97 66.47l0 0c4.79-8.85 13.6-13.27 19.67-9.87l0 0c2.92 1.63 4.8 4.88 5.23 9.03 0.43 4.16-0.61 8.88-2.92 13.12l0 0c-4.79 8.85-13.6 13.27-19.67 9.87l0 0c-6.07-3.39-7.11-13.31-2.31-22.16z" fill-rule="nonzero"/><path fill="#ffffff" d="m72.37 84.29l0 0c4.79-8.85 13.6-13.27 19.67-9.87l0 0c2.92 1.63 4.8 4.88 5.23 9.03 0.43 4.16-0.61 8.88-2.92 13.12l0 0c-4.79 8.85-13.6 13.27-19.67 9.87l0 0c-6.07-3.39-7.11-13.31-2.31-22.16z" fill-rule="nonzero"/></g></svg>